<svg width="1200" height="760" viewBox="0 0 1200 760" fill="none" xmlns="http://www.w3.org/2000/svg">
  <defs>
    <linearGradient id="bgC" x1="100" y1="60" x2="1080" y2="700" gradientUnits="userSpaceOnUse">
      <stop stop-color="#FFF5F2"/>
      <stop offset="1" stop-color="#FFFDF6"/>
    </linearGradient>
    <linearGradient id="cardC" x1="220" y1="120" x2="900" y2="650" gradientUnits="userSpaceOnUse">
      <stop stop-color="#FFF1E8"/>
      <stop offset="1" stop-color="#FFFFFF"/>
    </linearGradient>
    <linearGradient id="orbC" x1="0" y1="0" x2="1" y2="1">
      <stop stop-color="#F97316"/>
      <stop offset="1" stop-color="#FB7185"/>
    </linearGradient>
    <filter id="shadowC" x="170" y="84" width="860" height="610" filterUnits="userSpaceOnUse" color-interpolation-filters="sRGB">
      <feFlood flood-opacity="0" result="BackgroundImageFix"/>
      <feColorMatrix in="SourceAlpha" type="matrix" values="0 0 0 0 0 0 0 0 0 0 0 0 0 0 0 0 0 0 127 0" result="hardAlpha"/>
      <feOffset dy="22"/>
      <feGaussianBlur stdDeviation="22"/>
      <feColorMatrix type="matrix" values="0 0 0 0 0.235 0 0 0 0 0.094 0 0 0 0 0.094 0 0 0 0.12 0"/>
      <feBlend mode="normal" in2="BackgroundImageFix" result="effect1_dropShadow_1"/>
      <feBlend mode="normal" in="SourceGraphic" in2="effect1_dropShadow_1" result="shape"/>
    </filter>
    <style>
      .eyebrow { font: 700 22px Arial, sans-serif; letter-spacing: 2px; text-transform: uppercase; fill: #BE123C; }
      .title { font: 700 54px Georgia, serif; fill: #1F2937; }
      .copy { font: 400 28px Arial, sans-serif; fill: #6B7280; }
      .pill { font: 700 22px Arial, sans-serif; fill: #7C2D12; }
      .label { font: 700 24px Arial, sans-serif; fill: #0F172A; }
    </style>
  </defs>

  <rect width="1200" height="760" fill="url(#bgC)"/>
  <text x="120" y="70" class="label">C. Floating Chip Card</text>

  <g filter="url(#shadowC)">
    <rect x="210" y="110" width="780" height="530" rx="40" fill="url(#cardC)"/>
  </g>

  <g>
    <circle cx="600" cy="258" r="132" fill="url(#orbC)"/>
    <circle cx="600" cy="258" r="108" fill="#FFF8F2" opacity="0.92"/>
    <rect x="555" y="184" width="90" height="166" rx="26" fill="#FDE68A"/>
    <rect x="576" y="160" width="48" height="34" rx="12" fill="#FB923C"/>
    <rect x="528" y="250" width="144" height="56" rx="18" fill="#FFFFFF"/>
    <text x="559" y="286" style="font:700 22px Arial,sans-serif; fill:#C2410C;">Daily Care</text>
    <path d="M486 340C520 280 562 250 606 242C606 298 586 354 544 396C502 438 456 446 414 430C426 396 446 366 486 340Z" fill="#16A34A" opacity="0.72"/>
  </g>

  <g text-anchor="middle">
    <text x="600" y="420" class="eyebrow">More playful, more modern</text>
    <text x="600" y="492" class="title">Baby &amp; Mother Care</text>
    <text x="600" y="540" class="copy">Centered product stage with tag pills.</text>
    <text x="600" y="576" class="copy">Best if you want the homepage to feel lighter.</text>
  </g>

  <g>
    <rect x="316" y="604" width="166" height="50" rx="25" fill="#FFF1E8"/>
    <text x="362" y="637" class="pill">Nutrition</text>

    <rect x="502" y="604" width="180" height="50" rx="25" fill="#FFF7ED"/>
    <text x="543" y="637" class="pill">Skincare</text>

    <rect x="702" y="604" width="180" height="50" rx="25" fill="#FFF1F2"/>
    <text x="742" y="637" class="pill">Essentials</text>
  </g>
</svg>
