<svg width="1200" height="760" viewBox="0 0 1200 760" fill="none" xmlns="http://www.w3.org/2000/svg">
  <defs>
    <linearGradient id="bgA" x1="120" y1="80" x2="1080" y2="680" gradientUnits="userSpaceOnUse">
      <stop stop-color="#FFF7EF"/>
      <stop offset="1" stop-color="#F4F7FB"/>
    </linearGradient>
    <linearGradient id="photoA" x1="0" y1="0" x2="1" y2="1">
      <stop stop-color="#FAD5C0"/>
      <stop offset="1" stop-color="#F7B0B7"/>
    </linearGradient>
    <linearGradient id="bottleA" x1="0" y1="0" x2="0" y2="1">
      <stop stop-color="#FFF7D8"/>
      <stop offset="1" stop-color="#FFD589"/>
    </linearGradient>
    <filter id="shadowA" x="110" y="84" width="980" height="592" filterUnits="userSpaceOnUse" color-interpolation-filters="sRGB">
      <feFlood flood-opacity="0" result="BackgroundImageFix"/>
      <feColorMatrix in="SourceAlpha" type="matrix" values="0 0 0 0 0 0 0 0 0 0 0 0 0 0 0 0 0 0 127 0" result="hardAlpha"/>
      <feOffset dy="18"/>
      <feGaussianBlur stdDeviation="20"/>
      <feColorMatrix type="matrix" values="0 0 0 0 0.089 0 0 0 0 0.157 0 0 0 0 0.264 0 0 0 0.12 0"/>
      <feBlend mode="normal" in2="BackgroundImageFix" result="effect1_dropShadow_1"/>
      <feBlend mode="normal" in="SourceGraphic" in2="effect1_dropShadow_1" result="shape"/>
    </filter>
    <style>
      .eyebrow { font: 700 22px Arial, sans-serif; letter-spacing: 2px; text-transform: uppercase; fill: #C2410C; }
      .title { font: 700 54px Georgia, serif; fill: #172554; }
      .copy { font: 400 28px Arial, sans-serif; fill: #475569; }
      .chip { font: 700 22px Arial, sans-serif; fill: #9A3412; }
      .cta { font: 700 24px Arial, sans-serif; fill: #FFFFFF; }
      .tag { font: 700 24px Arial, sans-serif; fill: #7C2D12; }
      .label { font: 700 24px Arial, sans-serif; fill: #0F172A; }
    </style>
  </defs>

  <rect width="1200" height="760" fill="url(#bgA)"/>
  <text x="120" y="70" class="label">A. Editorial Tile</text>
  <text x="314" y="70" class="label">Recommended</text>

  <g filter="url(#shadowA)">
    <rect x="150" y="110" width="900" height="520" rx="34" fill="#FFFFFF"/>
  </g>

  <g>
    <rect x="190" y="150" width="400" height="440" rx="28" fill="url(#photoA)"/>
    <circle cx="300" cy="268" r="70" fill="#FFE8C2" opacity="0.9"/>
    <circle cx="500" cy="490" r="88" fill="#FFF0E6" opacity="0.65"/>
    <path d="M248 446C276 352 340 286 432 250C450 324 436 402 384 476C332 550 272 572 218 562C218 530 226 492 248 446Z" fill="#2F855A" opacity="0.82"/>
    <path d="M458 430C494 372 538 346 584 346C578 402 550 452 502 496C454 540 406 548 360 530C380 486 410 452 458 430Z" fill="#0F766E" opacity="0.7"/>
    <rect x="352" y="242" width="92" height="206" rx="28" fill="url(#bottleA)"/>
    <rect x="374" y="214" width="48" height="40" rx="12" fill="#F59E0B"/>
    <rect x="337" y="320" width="122" height="70" rx="18" fill="#FFF8E7"/>
    <text x="367" y="364" style="font:700 24px Arial,sans-serif; fill:#B45309;">Glow</text>
  </g>

  <g>
    <text x="650" y="220" class="eyebrow">Shop By Category</text>
    <text x="650" y="298" class="title">Beauty &amp; Skin Care</text>
    <text x="650" y="352" class="copy">Large editorial image, calmer type,</text>
    <text x="650" y="390" class="copy">and one strong CTA. This feels more</text>
    <text x="650" y="428" class="copy">premium than the current carousel card.</text>

    <rect x="650" y="470" width="182" height="56" rx="28" fill="#FFF3E8"/>
    <text x="685" y="506" class="chip">28 collections</text>

    <rect x="650" y="546" width="214" height="64" rx="22" fill="#E11D48"/>
    <text x="706" y="587" class="cta">Explore Category</text>

    <circle cx="930" cy="578" r="30" fill="#0F172A"/>
    <path d="M920 578H940" stroke="#FFFFFF" stroke-width="4" stroke-linecap="round"/>
    <path d="M934 570L942 578L934 586" stroke="#FFFFFF" stroke-width="4" stroke-linecap="round" stroke-linejoin="round"/>
  </g>

  <rect x="850" y="170" width="140" height="42" rx="21" fill="#FEF3C7"/>
  <text x="887" y="198" class="tag">Hero-style</text>
</svg>
