<svg width="1200" height="760" viewBox="0 0 1200 760" fill="none" xmlns="http://www.w3.org/2000/svg">
  <defs>
    <linearGradient id="bgB" x1="90" y1="80" x2="1100" y2="680" gradientUnits="userSpaceOnUse">
      <stop stop-color="#F8FBFF"/>
      <stop offset="1" stop-color="#EEF6F1"/>
    </linearGradient>
    <linearGradient id="panelB" x1="0" y1="0" x2="1" y2="1">
      <stop stop-color="#D7EEF8"/>
      <stop offset="1" stop-color="#E6F6D8"/>
    </linearGradient>
    <filter id="shadowB" x="100" y="84" width="1000" height="596" filterUnits="userSpaceOnUse" color-interpolation-filters="sRGB">
      <feFlood flood-opacity="0" result="BackgroundImageFix"/>
      <feColorMatrix in="SourceAlpha" type="matrix" values="0 0 0 0 0 0 0 0 0 0 0 0 0 0 0 0 0 0 127 0" result="hardAlpha"/>
      <feOffset dy="20"/>
      <feGaussianBlur stdDeviation="22"/>
      <feColorMatrix type="matrix" values="0 0 0 0 0.047 0 0 0 0 0.141 0 0 0 0 0.133 0 0 0 0.14 0"/>
      <feBlend mode="normal" in2="BackgroundImageFix" result="effect1_dropShadow_1"/>
      <feBlend mode="normal" in="SourceGraphic" in2="effect1_dropShadow_1" result="shape"/>
    </filter>
    <style>
      .eyebrow { font: 700 22px Arial, sans-serif; letter-spacing: 2px; text-transform: uppercase; fill: #0F766E; }
      .title { font: 700 52px Georgia, serif; fill: #0F172A; }
      .copy { font: 400 28px Arial, sans-serif; fill: #475569; }
      .meta { font: 700 20px Arial, sans-serif; fill: #155E75; }
      .cta { font: 700 24px Arial, sans-serif; fill: #FFFFFF; }
      .label { font: 700 24px Arial, sans-serif; fill: #0F172A; }
    </style>
  </defs>

  <rect width="1200" height="760" fill="url(#bgB)"/>
  <text x="120" y="70" class="label">B. Split Shelf</text>

  <g filter="url(#shadowB)">
    <rect x="140" y="110" width="920" height="520" rx="34" fill="#FFFFFF"/>
  </g>

  <g>
    <rect x="180" y="150" width="340" height="440" rx="26" fill="url(#panelB)"/>
    <rect x="214" y="482" width="272" height="18" rx="9" fill="#94A3B8" opacity="0.28"/>
    <rect x="250" y="430" width="64" height="52" rx="14" fill="#FCD34D"/>
    <rect x="326" y="394" width="76" height="88" rx="16" fill="#86EFAC"/>
    <rect x="412" y="358" width="58" height="124" rx="18" fill="#60A5FA"/>
    <rect x="275" y="250" width="130" height="126" rx="28" fill="#FFFFFF" opacity="0.8"/>
    <circle cx="340" cy="304" r="34" fill="#E0F2FE"/>
    <path d="M316 334C322 306 344 286 370 278C376 304 370 334 348 358C326 382 302 388 282 384C284 366 292 350 316 334Z" fill="#15803D" opacity="0.75"/>
  </g>

  <g>
    <text x="580" y="218" class="eyebrow">Practical Ecommerce Layout</text>
    <text x="580" y="292" class="title">Health Conditions</text>
    <text x="580" y="346" class="copy">A stronger commerce card with space for</text>
    <text x="580" y="384" class="copy">subcategories, stats, and a clean action row.</text>

    <rect x="580" y="430" width="160" height="48" rx="24" fill="#ECFEFF"/>
    <text x="620" y="461" class="meta">72 categories</text>
    <rect x="752" y="430" width="172" height="48" rx="24" fill="#F0FDF4"/>
    <text x="788" y="461" class="meta">Fast browse</text>

    <rect x="580" y="512" width="368" height="14" rx="7" fill="#E2E8F0"/>
    <rect x="580" y="512" width="248" height="14" rx="7" fill="#14B8A6"/>

    <text x="580" y="566" class="meta">Top paths: Diabetes, Cold &amp; Flu, Hypertension</text>

    <rect x="580" y="592" width="204" height="64" rx="22" fill="#0F766E"/>
    <text x="631" y="633" class="cta">Browse Conditions</text>
  </g>
</svg>
